<svg xmlns="http://www.w3.org/2000/svg" width="33" height="49" fill="none" viewBox="0 0 33 49" aria-label="Homepage" class="css-7vzs6a"><path fill="#00B6FF" d="M16.5 23.612a7.28 7.28 0 0 1 7.28-7.279h1.053a8.167 8.167 0 1 1 0 16.333H23.78a7.28 7.28 0 0 1-7.279-7.279z"></path><path fill="#24CB71" d="M0 40.834a8.167 8.167 0 0 1 8.167-8.167H16.5v8.083c0 4.557-3.735 8.25-8.292 8.25C3.698 49 0 45.344 0 40.834"></path><path fill="#FF7237" d="M16.5 0v16.333h8.333a8.167 8.167 0 1 0 0-16.333z"></path><path fill="#FF3737" d="M0 8.166a8.167 8.167 0 0 0 8.167 8.167H16.5V0H8.167A8.167 8.167 0 0 0 0 8.166"></path><path fill="#874FFF" d="M0 24.5a8.167 8.167 0 0 0 8.167 8.167H16.5V16.334H8.167A8.167 8.167 0 0 0 0 24.5"></path></svg>
